<svg width="380" height="282" viewBox="0 0 380 282" fill="none" xmlns="http://www.w3.org/2000/svg">
<g clip-path="url(#clip0_18_64)">
<path d="M344.091 280.178H263.518V277.705C263.518 275.559 264.37 273.5 265.888 271.982C267.406 270.464 269.465 269.611 271.612 269.611H335.996C338.143 269.611 340.202 270.464 341.72 271.982C343.238 273.5 344.091 275.559 344.091 277.705V280.178Z" fill="#E6E6E6"/>
<path d="M301.919 270.105L304.369 269.118C278.731 205.483 281.201 125.203 302.873 56.3362C305.447 48.3571 305.633 39.7994 303.407 31.7161C301.181 23.6329 296.641 16.3765 290.345 10.8399C277.766 -0.38516 260.423 -3.11967 245.083 3.70273C229.941 10.4381 227.854 22.17 227.854 33.8449H230.496C230.496 21.3826 233.159 11.8979 246.157 6.11639C260.534 -0.277456 276.792 2.28712 288.586 12.8111C294.5 18.0112 298.764 24.8266 300.855 32.4187C302.946 40.0109 302.771 48.0486 300.353 55.543C278.431 125.205 276.106 206.036 301.919 270.105Z" fill="#E6E6E6"/>
<path d="M229.835 72.8091C234.942 72.8091 239.081 68.6696 239.081 63.5633C239.081 58.4571 234.942 54.3176 229.835 54.3176C224.729 54.3176 220.589 58.4571 220.589 63.5633C220.589 68.6696 224.729 72.8091 229.835 72.8091Z" fill="#E6E6E6"/>
<path d="M215.596 79.6813V62.1628H218.32V79.6813C219.101 79.9974 219.748 80.5754 220.15 81.3162C220.552 82.0571 220.684 82.9147 220.523 83.742C220.362 84.5694 219.918 85.315 219.268 85.851C218.617 86.3871 217.8 86.6802 216.958 86.6802C216.115 86.6802 215.298 86.3871 214.648 85.851C213.997 85.315 213.553 84.5694 213.392 83.742C213.231 82.9147 213.363 82.0571 213.765 81.3162C214.167 80.5754 214.814 79.9974 215.596 79.6813Z" fill="#E6E6E6"/>
<path d="M202.427 48.704C202.432 44.6769 204.034 40.8161 206.881 37.9685C209.729 35.1209 213.59 33.5191 217.617 33.5146H242.714C246.742 33.5146 250.606 35.1149 253.455 37.9635C256.303 40.812 257.904 44.6755 257.904 48.704C257.904 52.7325 256.303 56.596 253.455 59.4445C250.606 62.2931 246.742 63.8934 242.714 63.8934H217.617C213.59 63.8889 209.729 62.2871 206.881 59.4395C204.034 56.5919 202.432 52.7311 202.427 48.704Z" fill="#6C63FF"/>
<path d="M167.067 142.767C169.587 110.53 182.47 95.1712 174.221 85.5394C166.319 76.3133 144.061 78.2192 129.766 87.0723C91.2101 110.951 77.0846 206.123 126.7 252.622C173.848 296.808 263.201 282.656 283.059 246.491C287.692 238.052 291.373 223.259 284.592 214.301C267.756 192.058 206.546 232.345 179.331 207.147C163.202 192.214 165.685 160.458 167.067 142.767Z" fill="#3F3D56"/>
<path d="M196.54 126.751C195.604 127.182 194.872 127.961 194.501 128.923C194.131 129.885 194.15 130.953 194.555 131.901C194.64 132.093 194.741 132.277 194.857 132.451L186.581 143.501L190.711 149.672L200.411 133.31C201.098 132.774 201.589 132.026 201.806 131.182C202.023 130.338 201.955 129.446 201.612 128.645C201.412 128.191 201.125 127.781 200.767 127.438C200.409 127.095 199.986 126.826 199.524 126.646C199.062 126.466 198.569 126.379 198.073 126.39C197.577 126.4 197.088 126.509 196.634 126.708C196.603 126.722 196.571 126.737 196.54 126.751Z" fill="#FFB6B6"/>
<path d="M196.533 145.802C197.075 146.282 195.573 146.875 193.984 145.94C193.529 145.669 193.335 145.557 193.284 145.628C193.156 145.807 193.902 147.126 193.703 150.053C193.58 151.801 190.678 155.086 187.382 158.29C182.926 162.623 177.745 166.803 177.745 166.803L175.926 165.346L156.851 150.053L153.632 145.598C153.927 143.838 154.369 142.107 154.955 140.422C155.762 138.089 156.722 135.812 157.827 133.606C158.42 132.405 159.028 131.26 159.61 130.208L169.83 141.469L178.394 150.902C178.394 150.902 180.887 146.885 182.819 145.792C183.065 145.635 183.345 145.538 183.636 145.511C185.588 145.419 185.706 144.356 183.442 142.042C181.179 139.727 184.035 141.888 186.048 141.265C188.061 140.642 186.048 141.265 186.472 139.706C186.896 138.148 192.543 135.021 192.543 135.021L192.778 135.231L197.044 138.996L198.266 140.074C198.266 140.074 196.932 143.733 196.564 144.504C196.196 145.276 195.997 145.317 196.533 145.802Z" fill="#6C63FF"/>
<path d="M309.008 216.782L309.216 211.146L287.575 207.662L287.268 215.98L309.008 216.782Z" fill="#FFB6B6"/>
<path d="M305.08 218.479L304.874 209.455L308.732 209.597L314.961 201.255C315.268 200.843 315.699 200.54 316.191 200.39C316.683 200.241 317.21 200.252 317.695 200.423C318.18 200.594 318.598 200.916 318.887 201.341C319.176 201.766 319.322 202.273 319.303 202.786L318.907 213.506L315.023 215.213L318.812 216.075L318.663 220.117L305.08 218.479Z" fill="#2F2E41"/>
<path d="M187.212 218.976L255.756 220.714C255.756 220.714 285.355 222.424 292.3 217.906L299.624 216.982L300.021 206.225C300.021 206.225 295.542 206.258 292.968 205.058C290.393 203.858 292.182 202.391 289.727 203.834C287.272 205.277 287.532 205.451 285.634 204.787C283.736 204.124 196.698 190.858 196.698 190.858L187.212 218.976Z" fill="#2F2E41"/>
<path d="M277.535 214.308L281.521 210.318L268.026 193.046L262.143 198.935L277.535 214.308Z" fill="#FFB6B6"/>
<path d="M273.501 210.837L279.488 204.082L282.219 206.81L292.459 204.93C292.965 204.837 293.487 204.909 293.95 205.133C294.412 205.358 294.79 205.725 295.03 206.18C295.269 206.635 295.356 207.155 295.279 207.664C295.202 208.172 294.964 208.642 294.601 209.006L287.02 216.596L283.012 215.205L285.203 218.415L282.345 221.276L273.501 210.837Z" fill="#2F2E41"/>
<path d="M160.169 181.439L160.851 197.278C161.653 215.925 182.189 227.21 198.113 217.475C198.406 217.295 198.701 217.109 198.996 216.917C198.996 216.917 205.033 215.296 204.85 212.728C204.667 210.161 206.141 208.912 207.447 209.612C208.752 210.312 225.84 186.062 225.84 186.062C225.84 186.062 261.343 203.771 269.175 207.94C269.175 207.94 276.539 196.426 276.005 196.547C275.472 196.668 232.083 166.301 232.083 166.301C232.083 166.301 225.015 159.147 216.247 163.871C216.064 164.564 216.22 164.589 216.22 164.589L187.256 188.189L183.163 180.417L160.169 181.439Z" fill="#2F2E41"/>
<path d="M187.479 161.637C187.424 162.368 187.32 163.096 187.167 163.813C186.959 164.852 186.622 165.862 186.166 166.818C186.166 166.818 186.166 167.886 184.122 171.462C182.078 175.039 184.633 173.506 186.166 176.163C187.699 178.815 186.166 177.594 184.464 179.301C183.974 179.797 183.626 180.416 183.456 181.093C183.287 181.769 183.301 182.479 183.498 183.148C183.498 183.148 161.547 183.163 157.459 181.631C153.371 180.098 152.441 171.462 156.105 170.609C159.763 169.756 154.996 168.908 152.845 166.941C150.694 164.973 154.996 161.754 154.996 161.754C154.996 161.754 153.223 158.694 153.371 148.418C153.392 147.473 153.479 146.531 153.632 145.598C153.927 143.838 154.369 142.107 154.955 140.422C155.762 138.089 156.722 135.813 157.827 133.606C158.42 132.405 159.028 131.26 159.61 130.208C159.702 130.044 159.789 129.886 159.881 129.728C160.99 127.765 162.002 126.161 162.671 125.134C163.187 124.337 163.499 123.887 163.499 123.887L167.219 117.419L179.635 123.238L178.93 132.758L181.071 139.936L182.057 143.242L182.819 145.792L183.994 149.742C183.994 149.742 183.672 149.757 184.055 150.283C185.82 152.63 186.964 155.384 187.382 158.29C187.529 159.399 187.561 160.521 187.479 161.637Z" fill="#6C63FF"/>
<path d="M223.337 162.663L223.104 162.587L193.385 153.018L204.336 117.091C204.554 116.376 204.932 115.719 205.441 115.171C205.949 114.623 206.576 114.197 207.273 113.926C207.97 113.655 208.72 113.546 209.465 113.607C210.211 113.668 210.933 113.897 211.577 114.278L230.568 125.498C232.071 126.385 233.215 127.772 233.799 129.417C234.384 131.062 234.371 132.86 233.765 134.496L223.337 162.663Z" fill="#2F2E41"/>
<path d="M223.458 164.947L193.5 155.3L204.451 119.374C204.669 118.658 205.046 118.002 205.555 117.453C206.064 116.905 206.69 116.479 207.388 116.209C208.085 115.938 208.834 115.829 209.58 115.889C210.325 115.95 211.047 116.18 211.691 116.56L231.589 126.494C234.579 128.26 234.509 132.83 233.121 136.579L223.458 164.947Z" fill="#6C63FF"/>
<path d="M220.458 167.547C219.768 167.936 219.005 168.178 218.217 168.256C217.429 168.334 216.633 168.248 215.88 168.002L196.731 161.836C195.262 161.356 194.039 160.321 193.323 158.951C192.607 157.581 192.455 155.986 192.899 154.506L202.499 123.012C202.691 122.383 203.007 121.798 203.428 121.293C203.848 120.787 204.366 120.37 204.95 120.067C205.533 119.764 206.172 119.581 206.828 119.528C207.483 119.475 208.143 119.553 208.768 119.759L228.611 126.274C229.557 126.584 230.431 127.081 231.181 127.735C231.931 128.388 232.543 129.186 232.98 130.08C233.417 130.974 233.67 131.946 233.725 132.94C233.78 133.934 233.635 134.928 233.299 135.865L223.034 164.48C222.573 165.779 221.659 166.869 220.458 167.547Z" fill="#3F3D56"/>
<path d="M178.933 117.529C186.508 117.529 192.648 111.389 192.648 103.814C192.648 96.2402 186.508 90.1 178.933 90.1C171.359 90.1 165.218 96.2402 165.218 103.814C165.218 111.389 171.359 117.529 178.933 117.529Z" fill="#FFB6B6"/>
<path d="M132.555 117.736C133.814 120.175 135.878 122.104 138.397 123.196C139.402 123.654 140.459 123.988 141.544 124.192C141.851 122.975 142.342 121.812 143.001 120.744C142.781 121.948 142.781 123.182 143.001 124.386C144.655 124.521 146.319 124.315 147.889 123.779C149.432 123.255 150.831 122.378 151.976 121.218C153.12 120.059 153.979 118.649 154.483 117.1C155.576 113.464 154.399 109.581 154.306 105.787C154.211 101.992 156.013 97.4531 159.78 96.9835C162.649 96.6253 162.295 96.9034 164.356 98.9302C161.473 102.133 168.503 116.321 172.275 115.694C174.408 115.34 175.977 113.647 176.399 113.705C178.559 118.995 172.062 126.497 177.215 128.96L176.833 128.454C174.135 123.998 182.117 116.471 179.419 112.015C178.667 110.769 177.885 109.307 178.351 107.928C178.792 106.617 181.029 106.202 181.5 107.396C180.733 104.661 182.875 101.45 185.718 101.171C188.245 100.922 188.099 101.642 190.508 102.299C190.816 101.261 191.259 100.269 191.827 99.3474C191.635 100.399 191.611 101.474 191.757 102.533C192.626 102.636 193.505 102.45 194.257 102.004C196.481 100.67 196.548 97.2279 195.019 95.133C193.488 93.0376 190.924 92.0031 188.45 91.2202C188.428 85.9886 174.35 83.4841 171.761 88.3481C171.494 84.4098 166.98 81.7568 163.091 82.4258C159.202 83.0948 156.133 86.2132 154.263 89.6889C152.393 93.1619 151.464 97.0507 150.095 100.75C148.726 104.449 146.769 108.138 143.49 110.333C140.212 112.525 135.34 112.724 132.603 109.883C131.979 111.096 131.649 112.439 131.641 113.804C131.633 115.168 131.946 116.515 132.555 117.736Z" fill="#2F2E41"/>
<path d="M146.628 180.451C146.912 180.224 147.22 180.03 147.546 179.87C152.796 177.257 169.121 170.476 181.886 170.754C206.446 171.289 237.703 198.394 230.428 216.596C224.893 230.446 197.374 238.326 177.287 232.023C149.146 223.194 138.038 187.3 146.628 180.451Z" fill="#3F3D56"/>
<path d="M44.6671 280.23C36.6417 278.716 29.5378 242.562 45.3275 224.755C50.7373 218.655 57.4854 216 66.4615 213.528C118.125 199.306 157.53 212.861 162.825 216.17C168.109 219.472 177.371 269.225 165.527 276.267C158.862 280.23 145.654 282.211 139.109 277.588C129.48 270.786 145.643 253.142 138.449 241.266C130.285 227.789 87.2945 223.249 65.7412 236.643C42.746 250.933 90.1773 288.815 44.6671 280.23Z" fill="#F2F2F2"/>
<path d="M98.3239 218.76H67.664C60.0953 211.506 54.6837 204.516 59.0163 198.714C59.0163 197.046 59.6789 195.446 60.8583 194.267C62.0378 193.087 63.6375 192.425 65.3055 192.425H100.682C102.35 192.425 103.95 193.087 105.129 194.267C106.309 195.446 106.972 197.046 106.972 198.714C108.621 205.325 105.674 212.008 98.3239 218.76Z" fill="#CCCCCC"/>
<path d="M92.8176 184.507C92.5267 184.521 92.2387 184.444 91.9926 184.289C91.7466 184.133 91.5544 183.905 91.442 183.636C91.3297 183.368 91.3026 183.071 91.3646 182.787C91.4265 182.502 91.5744 182.243 91.7882 182.046L91.8856 181.659C91.8727 181.628 91.8599 181.597 91.8469 181.566C91.5538 180.874 91.0628 180.284 90.4353 179.87C89.8079 179.456 89.0722 179.236 88.3205 179.239C87.5688 179.242 86.8347 179.467 86.2103 179.885C85.586 180.304 85.0993 180.898 84.8114 181.592C83.6607 184.363 82.1957 187.139 81.835 190.07C81.6761 191.365 81.7431 192.678 82.0331 193.95C79.3304 188.055 77.927 181.647 77.918 175.162C77.9174 173.535 78.0078 171.909 78.1888 170.291C78.3384 168.965 78.5459 167.649 78.8114 166.342C80.2599 159.251 83.37 152.604 87.8863 146.948C90.0722 145.755 91.8399 143.921 92.9513 141.693C93.354 140.892 93.6385 140.037 93.7962 139.155C93.5496 139.187 92.8664 135.432 93.0524 135.201C92.7088 134.68 92.0937 134.421 91.7184 133.912C89.8519 131.381 87.2804 131.823 85.9379 135.262C83.0701 136.709 83.0424 139.11 84.802 141.418C85.9215 142.887 86.0754 144.874 87.0577 146.447C86.9566 146.576 86.8515 146.701 86.7504 146.831C84.9031 149.206 83.293 151.757 81.9432 154.446C82.2715 151.433 81.8797 148.385 80.8002 145.553C79.706 142.914 77.6553 140.691 75.8494 138.409C73.6802 135.669 69.232 136.865 68.8498 140.339C68.8461 140.373 68.8425 140.406 68.839 140.44C69.1072 140.591 69.3698 140.752 69.6267 140.922C69.9495 141.137 70.1996 141.446 70.3442 141.806C70.4889 142.166 70.5214 142.561 70.4374 142.94C70.3534 143.319 70.1569 143.664 69.8737 143.929C69.5904 144.195 69.2336 144.368 68.85 144.428L68.8107 144.434C68.9063 145.4 69.0752 146.358 69.316 147.3C66.9992 156.259 72.001 159.522 79.1428 159.669C79.3005 159.749 79.4541 159.83 79.6118 159.907C78.2557 163.75 77.405 167.753 77.0813 171.815C76.898 174.212 76.9088 176.619 77.1136 179.014L77.1015 178.929C76.584 176.266 75.1633 173.863 73.0794 172.126C69.9841 169.584 65.6111 168.648 62.2719 166.604C61.9171 166.376 61.5044 166.255 61.0827 166.254C60.661 166.252 60.2478 166.372 59.8918 166.598C59.5358 166.824 59.2519 167.147 59.0736 167.53C58.8952 167.912 58.8299 168.337 58.8853 168.755C58.8898 168.785 58.8943 168.814 58.899 168.844C59.3967 169.047 59.8814 169.28 60.3501 169.543C60.6184 169.695 60.881 169.855 61.1379 170.025C61.4606 170.241 61.7107 170.549 61.8553 170.909C62 171.269 62.0325 171.665 61.9485 172.044C61.8646 172.423 61.6681 172.768 61.3848 173.033C61.1016 173.298 60.7448 173.472 60.3611 173.531L60.3218 173.537C60.2935 173.541 60.2693 173.545 60.241 173.549C61.0915 175.58 62.2853 177.449 63.7699 179.075C65.2186 186.896 71.4404 187.638 78.0959 185.36H78.0999C78.8301 188.534 79.8882 191.622 81.257 194.577H92.535C92.5755 194.451 92.6118 194.322 92.6482 194.197C91.6043 194.262 90.5562 194.2 89.5275 194.011C90.3643 192.984 91.201 191.949 92.0378 190.922C92.0564 190.903 92.074 190.883 92.0903 190.862C92.5148 190.336 92.9433 189.815 93.3677 189.289L93.3679 189.289C93.3906 187.678 93.2057 186.071 92.818 184.508L92.8176 184.507Z" fill="#CCCCCC"/>
<path d="M131.285 217.117C131.472 217.661 131.827 218.133 132.298 218.463C132.77 218.794 133.334 218.966 133.91 218.956L145.157 218.666C145.737 218.655 146.298 218.456 146.756 218.1C147.214 217.743 147.544 217.249 147.697 216.689L149.288 199.67C149.853 199.926 150.468 200.052 151.088 200.04C152.175 200.012 153.207 199.554 153.957 198.766C154.707 197.977 155.113 196.924 155.085 195.836C155.058 194.749 154.6 193.716 153.812 192.967C153.023 192.217 151.969 191.811 150.882 191.839C150.634 191.838 150.387 191.864 150.145 191.915C149.881 191.63 149.561 191.403 149.205 191.25C148.848 191.096 148.464 191.019 148.075 191.022L130.774 191.469C130.63 191.474 130.488 191.492 130.347 191.522C129.968 191.593 129.608 191.744 129.292 191.966C128.976 192.187 128.711 192.474 128.515 192.806C128.319 193.138 128.196 193.509 128.155 193.893C128.114 194.277 128.156 194.665 128.278 195.031L131.285 217.117ZM149.615 198.514L150.747 194.459C150.876 193.99 150.879 193.496 150.756 193.026C150.811 193.026 150.86 193 150.915 193C151.691 192.984 152.442 193.276 153.003 193.813C153.564 194.35 153.89 195.088 153.908 195.864C153.926 196.641 153.635 197.392 153.1 197.955C152.565 198.518 151.828 198.845 151.052 198.866C150.55 198.881 150.053 198.76 149.615 198.514Z" fill="#CCCCCC"/>
<path d="M130.347 191.522C130.716 193.63 134.86 195.111 139.843 194.854C144.425 194.643 148.172 193.034 148.858 191.127C148.604 191.052 148.34 191.016 148.075 191.022L130.774 191.469C130.63 191.474 130.488 191.492 130.347 191.522Z" fill="white"/>
<path d="M0.602366 281.028L379.398 281.183C379.557 281.183 379.711 281.12 379.824 281.007C379.937 280.894 380 280.741 380 280.581C380 280.421 379.937 280.268 379.824 280.155C379.711 280.042 379.557 279.979 379.398 279.979L0.602366 279.823C0.442608 279.823 0.289395 279.887 0.176429 280C0.0634625 280.113 0 280.266 0 280.425C0 280.585 0.0634625 280.738 0.176429 280.851C0.289395 280.964 0.442608 281.028 0.602366 281.028Z" fill="#CACACA"/>
<path d="M213.057 146.41C212.027 146.447 211.052 146.885 210.34 147.631C209.628 148.376 209.235 149.37 209.244 150.4C209.249 150.61 209.272 150.819 209.312 151.024L197.424 158.043L198.863 165.328L214.108 153.953C214.949 153.722 215.689 153.22 216.214 152.525C216.739 151.829 217.019 150.979 217.01 150.108C217.001 149.612 216.893 149.123 216.695 148.668C216.496 148.214 216.21 147.803 215.852 147.46C215.495 147.116 215.073 146.846 214.611 146.665C214.149 146.485 213.656 146.397 213.16 146.406C213.126 146.407 213.091 146.408 213.057 146.41Z" fill="#FFB6B6"/>
<path d="M203.318 163.141C203 162.715 202.864 162.537 202.791 162.585C202.605 162.698 202.784 164.203 201.475 166.826C199.632 170.511 180.306 176.156 180.306 176.156L177.927 171.8L167.461 152.657L163.853 137.314C163.727 136.779 163.666 136.231 163.671 135.681C166.887 133.418 170.303 131.452 173.875 129.807C175.303 130.617 176.391 131.914 176.942 133.46L184.146 153.66L187.021 161.724C187.021 161.724 192.092 158.098 193.931 158.764C195.768 159.434 196.29 158.495 195.089 155.488C193.889 152.482 195.691 155.577 197.788 155.773C199.889 155.973 197.788 155.773 198.78 154.498C199.773 153.222 206.189 152.504 206.189 152.504L206.325 152.789L208.812 157.904L209.524 159.373C209.524 159.373 206.888 162.233 206.252 162.803C205.613 163.377 205.415 163.338 205.728 163.992C206.037 164.643 204.423 164.613 203.318 163.141Z" fill="#6C63FF"/>
</g>
<defs>
<clipPath id="clip0_18_64">
<rect width="380" height="281.481" fill="white"/>
</clipPath>
</defs>
</svg>
