<svg width="891" height="558" viewBox="0 0 891 558" fill="none" xmlns="http://www.w3.org/2000/svg">
<g clip-path="url(#clip0_175_98)">
<rect width="890.924" height="558" rx="28.1345" fill="#412F59"/>
<path d="M420.295 488.469L419.042 493.947L419.344 494.275C419.277 494.443 419.21 494.61 419.13 494.777C418.464 496.28 417.704 497.738 416.853 499.144C415.727 501.012 414.468 502.814 413.162 504.582C412.446 505.56 411.709 506.531 410.973 507.495C410.952 507.528 410.93 507.559 410.906 507.589C410.914 507.555 410.925 507.521 410.939 507.489L410.698 507.435L409.312 501.421L408.89 502.372V502.379L408.207 503.952C408.26 504.24 408.314 504.522 408.381 504.803C408.374 504.796 408.374 504.783 408.367 504.776C408.361 504.769 408.361 504.77 408.361 504.763C408.274 504.575 408.18 504.394 408.093 504.207L407.048 506.604L404.932 506.122C403.82 505.546 402.708 504.964 401.603 504.361C386.508 496.17 372.531 485.716 363.122 471.485C359.382 465.816 356.555 459.594 354.744 453.048C351.174 440.042 351.79 426.045 358.287 414.426C358.287 414.425 358.287 414.424 358.287 414.423C358.287 414.423 358.288 414.422 358.289 414.421C358.289 414.421 358.29 414.42 358.291 414.42C358.292 414.419 358.292 414.419 358.293 414.419C358.454 414.125 358.622 413.83 358.796 413.535C358.923 413.87 359.043 414.205 359.177 414.54V414.547C360.923 419.094 363.031 423.495 365.479 427.706C365.667 428.034 365.854 428.363 366.055 428.684C372.037 438.725 379.83 447.567 389.04 454.762C389.065 454.787 389.092 454.809 389.12 454.829C389.152 454.856 389.185 454.881 389.22 454.903C391.27 456.51 393.388 458.022 395.576 459.437V459.444C397.284 460.555 399.038 461.607 400.82 462.605C404.617 464.721 408.749 466.757 412.299 469.295C415.748 471.753 418.654 474.68 420.201 478.597C420.322 478.912 420.435 479.227 420.536 479.542L417.777 488.054L420.295 488.469Z" fill="#F0F0F0"/>
<path d="M408.89 502.372V502.379L408.207 503.953C407.175 498.22 408.401 492.159 407.55 486.353C407.456 485.703 407.336 485.053 407.182 484.41C406.311 480.74 404.322 477.305 400.786 475.664C399.754 475.194 398.671 474.846 397.558 474.626C395.362 474.157 393.071 474.057 390.854 473.796C390.299 473.729 389.749 473.655 389.214 473.555C386.347 473.11 383.611 472.053 381.191 470.454C378.228 468.348 375.646 465.753 373.556 462.779C372.175 460.912 370.89 458.976 369.705 456.979C369.544 456.725 369.397 456.464 369.243 456.202C366.471 451.402 364.198 446.33 362.459 441.067C361.563 438.377 360.812 435.64 360.209 432.87C358.866 426.815 358.222 420.627 358.287 414.426C358.287 414.425 358.287 414.424 358.287 414.423C358.287 414.423 358.288 414.422 358.288 414.421C358.289 414.421 358.29 414.42 358.291 414.42C358.291 414.419 358.292 414.419 358.293 414.419C358.287 414.138 358.293 413.857 358.3 413.575C358.313 413 359.204 413.127 359.191 413.703C359.184 413.984 359.177 414.259 359.177 414.54V414.547C359.123 420.488 359.722 426.417 360.965 432.227C361.032 432.522 361.099 432.816 361.16 433.111C362.97 441.162 366.013 448.885 370.181 456.008C370.227 456.089 370.274 456.169 370.328 456.249C371.299 457.903 372.344 459.511 373.442 461.085C375.46 464.114 377.941 466.808 380.795 469.067C383.197 470.864 385.986 472.073 388.939 472.597C389.234 472.65 389.528 472.704 389.83 472.751C390.064 472.791 390.305 472.824 390.546 472.851C392.803 473.133 395.121 473.24 397.364 473.668C398.384 473.861 399.386 474.141 400.358 474.505C401.949 475.143 403.387 476.11 404.578 477.343C405.769 478.575 406.686 480.046 407.269 481.658C407.866 483.222 408.275 484.852 408.488 486.513C408.561 487.056 408.615 487.598 408.662 488.147V488.154C408.729 489.038 408.762 489.929 408.776 490.82C408.789 491.931 408.769 493.043 408.742 494.148C408.594 496.889 408.643 499.638 408.89 502.372V502.372Z" fill="white"/>
<path d="M370.086 456.792C367.534 458.088 364.605 458.435 361.82 457.771C359.036 457.106 356.579 455.474 354.888 453.165C354.547 452.697 355.259 452.145 355.6 452.614C357.171 454.767 359.46 456.287 362.054 456.901C364.648 457.514 367.375 457.18 369.744 455.959C370.26 455.694 370.598 456.529 370.086 456.792H370.086Z" fill="white"/>
<path d="M388.852 472.865C390.717 467.319 390.423 461.274 388.028 455.935C387.791 455.406 388.624 455.065 388.861 455.593C391.342 461.154 391.635 467.445 389.682 473.212C389.496 473.762 388.666 473.411 388.852 472.865H388.852Z" fill="white"/>
<path d="M360.705 432.31C361.797 432.014 362.799 431.452 363.619 430.674C364.44 429.895 365.055 428.925 365.408 427.85C365.588 427.299 366.417 427.65 366.239 428.198C365.843 429.383 365.163 430.454 364.258 431.316C363.353 432.178 362.25 432.805 361.047 433.143C360.936 433.184 360.814 433.182 360.705 433.136C360.596 433.091 360.508 433.005 360.46 432.897C360.415 432.787 360.416 432.663 360.462 432.553C360.508 432.443 360.595 432.356 360.705 432.31H360.705Z" fill="white"/>
<path d="M410.867 507.645C410.881 507.624 410.895 507.61 410.909 507.589C410.881 507.673 410.853 507.756 410.832 507.847L410.867 507.645Z" fill="#F0F0F0"/>
<path d="M430.776 466.416L429.838 469.697L424.079 468.619L422.17 474.506L421.842 475.517L420.536 479.542L417.777 488.054L420.295 488.469L419.043 493.947L419.344 494.275L419.438 494.376L420.061 495.059L423.851 499.198L413.484 508.071L411.823 507.69L410.973 507.495C410.953 507.528 410.93 507.56 410.906 507.589C410.914 507.555 410.925 507.521 410.939 507.489L410.698 507.435L409.312 501.421L408.89 502.372V502.379L408.207 503.953C408.26 504.241 408.314 504.522 408.381 504.803C408.374 504.797 408.374 504.783 408.367 504.776C408.361 504.77 408.361 504.77 408.361 504.763C408.274 504.576 408.18 504.395 408.093 504.207C406.767 501.441 405.501 498.635 404.329 495.796C401.441 488.957 399.175 481.872 397.558 474.626C397.491 474.312 397.418 473.997 397.364 473.675V473.669C396.382 468.984 395.784 464.226 395.576 459.444V459.437C395.469 456.819 395.496 454.197 395.656 451.582C396.08 444.822 397.565 438.17 400.056 431.872C400.07 431.839 400.083 431.812 400.097 431.778C404.872 419.764 413.276 409.343 424.702 403.791C425.177 403.55 425.666 403.323 426.155 403.108H426.168L426.175 403.102C426.483 402.968 426.784 402.84 427.092 402.706C426.992 403.055 426.885 403.403 426.791 403.758C425.44 408.437 424.472 413.219 423.898 418.056V418.063C423.844 418.431 423.798 418.813 423.757 419.188V419.195C422.494 430.861 423.407 442.66 426.45 453.993C426.456 454.026 426.47 454.053 426.476 454.086C427.613 458.294 429.05 462.414 430.776 466.416Z" fill="#F0F0F0"/>
<path d="M420.06 495.059C419.531 495.769 418.989 496.459 418.44 497.148C417.911 497.811 417.382 498.474 416.853 499.144C415.47 500.848 414.235 502.667 413.162 504.582C412.625 505.576 412.177 506.616 411.823 507.69L410.973 507.495C410.952 507.528 410.93 507.559 410.906 507.589C410.914 507.555 410.925 507.521 410.939 507.489C412.499 502.613 416.049 498.836 419.13 494.778C419.237 494.644 419.337 494.51 419.438 494.376L420.06 495.059Z" fill="white"/>
<path d="M427.313 403.081C427.139 403.302 426.958 403.53 426.791 403.757C425.485 405.452 424.251 407.2 423.088 409.001C421.016 412.18 419.176 415.504 417.583 418.946C417.455 419.214 417.328 419.489 417.208 419.763C413.797 427.287 411.574 435.293 410.618 443.498C410.604 443.578 410.598 443.652 410.591 443.732C410.37 445.648 410.227 447.57 410.162 449.498C409.949 453.131 410.308 456.774 411.227 460.294C411.361 460.756 411.508 461.212 411.669 461.654C412.072 462.737 412.576 463.78 413.176 464.768C413.607 465.489 414.085 466.18 414.609 466.837C414.924 467.239 415.252 467.634 415.6 468.016C415.801 468.237 416.009 468.458 416.216 468.679C416.39 468.846 416.558 469.02 416.732 469.188C418.54 470.942 420.536 472.57 422.17 474.505L421.842 475.517C420.268 473.521 418.239 471.867 416.411 470.125C415.263 469.046 414.218 467.862 413.29 466.589C413.169 466.415 413.042 466.241 412.928 466.06C412.308 465.154 411.772 464.192 411.328 463.187C411.1 462.685 410.892 462.169 410.705 461.634C409.611 458.171 409.112 454.548 409.231 450.918C409.253 448.593 409.391 446.271 409.647 443.96C409.673 443.659 409.707 443.364 409.747 443.063C410.426 437.562 411.665 432.145 413.444 426.896C415.695 420.237 418.792 413.894 422.659 408.024C423.764 406.343 424.936 404.702 426.175 403.101C426.336 402.88 426.503 402.666 426.677 402.445C427.032 401.989 427.668 402.626 427.313 403.081Z" fill="white"/>
<path d="M410.066 444.045C407.248 443.543 404.7 442.056 402.877 439.85C401.054 437.643 400.075 434.86 400.114 431.998C400.117 431.882 400.165 431.77 400.248 431.688C400.331 431.606 400.442 431.56 400.559 431.558C400.676 431.557 400.789 431.601 400.874 431.681C400.959 431.761 401.009 431.871 401.015 431.987C400.973 434.652 401.885 437.244 403.587 439.296C405.289 441.347 407.668 442.723 410.294 443.174C410.865 443.273 410.633 444.143 410.066 444.045V444.045Z" fill="white"/>
<path d="M415.372 468.176C420.2 464.871 423.605 459.867 424.908 454.163C425.036 453.598 425.907 453.827 425.778 454.392C424.412 460.325 420.858 465.525 415.826 468.954C415.346 469.28 414.895 468.501 415.372 468.176H415.372Z" fill="white"/>
<path d="M417.316 418.849C418.365 419.271 419.504 419.424 420.628 419.297C421.752 419.17 422.827 418.765 423.756 418.12C424.231 417.788 424.682 418.567 424.21 418.897C423.18 419.606 421.992 420.051 420.751 420.194C419.509 420.338 418.251 420.175 417.087 419.72C416.974 419.686 416.877 419.611 416.818 419.509C416.758 419.407 416.74 419.286 416.766 419.17C416.797 419.055 416.872 418.957 416.975 418.897C417.078 418.837 417.2 418.82 417.316 418.849V418.849Z" fill="white"/>
<path d="M512.788 121.849C507.717 94.7129 515.7 63.8405 537.887 47.4147C536.63 77.4092 546.023 106.882 564.403 130.618C571.525 139.746 580.397 149.157 580.121 160.732C579.95 167.934 576.055 174.644 570.922 179.698C565.789 184.753 559.466 188.397 553.219 191.985L552.246 193.497C533.932 172.84 517.858 148.986 512.788 121.849Z" fill="#F0F0F0"/>
<path d="M538.292 47.8294C528.97 68.6917 526.459 91.9607 531.115 114.331C532.141 119.118 533.6 123.884 536.072 128.137C538.514 132.263 542.017 135.661 546.216 137.976C550.088 140.213 554.308 142.053 557.568 145.193C561.005 148.502 562.536 153.019 562.408 157.738C562.252 163.511 560.031 168.885 557.676 174.064C555.061 179.814 552.254 185.746 552.424 192.211C552.444 192.994 551.228 192.98 551.207 192.198C550.912 180.95 559.044 171.916 560.856 161.123C561.702 156.087 561.034 150.766 557.494 146.862C554.398 143.448 550.048 141.547 546.108 139.315C541.971 136.972 538.449 134.078 535.831 130.064C533.153 125.959 531.505 121.24 530.361 116.501C527.846 105.734 527.039 94.6392 527.97 83.6222C528.963 71.0427 532.101 58.7258 537.248 47.2044C537.566 46.4914 538.609 47.1211 538.292 47.8294H538.292Z" fill="white"/>
<path d="M529.192 107.216C525.332 107.488 521.502 106.379 518.385 104.087C515.268 101.795 513.067 98.4703 512.175 94.7056C511.997 93.9433 513.173 93.6311 513.351 94.3945C514.175 97.9017 516.226 100.999 519.133 103.127C522.04 105.255 525.612 106.274 529.204 106C529.985 105.941 529.968 107.158 529.192 107.216V107.216Z" fill="white"/>
<path d="M544.104 137.1C549.343 131.176 552.156 123.494 551.983 115.587C551.966 114.804 553.182 114.817 553.2 115.6C553.365 123.828 550.42 131.816 544.955 137.969C544.433 138.556 543.585 137.683 544.104 137.1V137.1Z" fill="white"/>
<path d="M530.389 71.7982C531.904 72.0043 533.447 71.8308 534.878 71.2933C536.31 70.7559 537.586 69.8713 538.591 68.7189C539.104 68.1265 539.952 68.9996 539.442 69.5882C538.325 70.8562 536.915 71.8314 535.335 72.4287C533.755 73.0261 532.052 73.2273 530.376 73.0148C530.217 73.0081 530.065 72.9407 529.954 72.8266C529.842 72.7124 529.778 72.5599 529.774 72.4002C529.777 72.2391 529.843 72.0855 529.958 71.9728C530.073 71.8601 530.228 71.7973 530.389 71.7982V71.7982Z" fill="white"/>
<path d="M628.621 69.8607C628.311 70.2397 628.001 70.6188 627.693 71.0078C623.549 76.1256 619.827 81.5716 616.565 87.2922C616.306 87.7304 616.05 88.1785 615.804 88.6233C608.091 102.489 603.02 117.666 600.847 133.383C599.989 139.638 599.607 145.95 599.706 152.263C599.843 160.981 600.685 170.423 598.013 178.441C597.744 179.281 597.422 180.103 597.051 180.903L554.167 194.566C554.054 194.549 553.944 194.541 553.83 194.523L552.143 195.147C552.115 194.822 552.093 194.484 552.065 194.158C552.048 193.97 552.041 193.778 552.024 193.59C552.016 193.463 552.008 193.336 551.993 193.222C551.991 193.18 551.988 193.138 551.988 193.105C551.974 192.991 551.972 192.884 551.96 192.78C551.833 190.892 551.715 189 551.617 187.102C551.614 187.092 551.614 187.092 551.62 187.079C550.884 172.624 551.348 157.981 554.021 143.873C554.101 143.449 554.178 143.015 554.278 142.584C555.518 136.232 557.275 129.991 559.531 123.925C560.777 120.608 562.191 117.355 563.766 114.181C567.851 105.985 573.201 98.4839 579.617 91.951C592.411 78.9297 609.226 70.1449 627.245 69.8683C627.706 69.8615 628.157 69.8576 628.621 69.8607Z" fill="#F0F0F0"/>
<path d="M628.698 70.4356C608.695 81.4806 592.68 98.5477 582.929 119.213C580.867 123.653 579.161 128.336 578.575 133.22C578.041 137.985 578.792 142.807 580.751 147.184C582.496 151.301 584.757 155.311 585.47 159.781C586.222 164.492 584.725 169.02 581.782 172.711C578.181 177.227 573.172 180.18 568.174 182.897C562.624 185.914 556.811 188.96 553.054 194.224C552.599 194.862 551.636 194.118 552.09 193.482C558.627 184.323 570.559 182.006 578.504 174.48C582.211 170.967 584.882 166.317 584.406 161.068C583.989 156.478 581.66 152.342 579.858 148.188C577.965 143.826 576.896 139.394 577.222 134.614C577.556 129.724 579.082 124.964 581.021 120.491C585.495 110.38 591.531 101.036 598.907 92.7998C607.274 83.3537 617.195 75.4085 628.241 69.3079C628.925 68.9305 629.378 70.0607 628.698 70.4356V70.4356Z" fill="white"/>
<path d="M585.677 112.374C582.432 110.267 580.042 107.076 578.932 103.369C577.823 99.6625 578.068 95.6824 579.623 92.1396C579.94 91.4238 581.067 91.8828 580.749 92.5995C579.296 95.896 579.068 99.6034 580.108 103.053C581.148 106.502 583.386 109.466 586.42 111.41C587.078 111.833 586.332 112.795 585.677 112.374H585.677Z" fill="white"/>
<path d="M579.592 145.212C587.342 143.636 594.213 139.197 598.836 132.78C599.293 132.143 600.256 132.887 599.799 133.522C594.977 140.191 587.817 144.797 579.748 146.419C578.979 146.573 578.827 145.366 579.592 145.212H579.592Z" fill="white"/>
<path d="M607.957 84.8152C609.043 85.892 610.379 86.6822 611.846 87.115C613.313 87.5477 614.864 87.6095 616.36 87.2946C617.127 87.1308 617.278 88.3385 616.516 88.5012C614.861 88.8414 613.148 88.7712 611.527 88.2966C609.906 87.8221 608.425 86.9577 607.215 85.779C607.091 85.6774 607.011 85.5327 606.991 85.3742C606.97 85.2158 607.011 85.0554 607.104 84.9258C607.203 84.7987 607.348 84.7158 607.508 84.6951C607.668 84.6744 607.829 84.7176 607.957 84.8153V84.8152Z" fill="white"/>
<path d="M353.046 89.4319C350.677 87.7592 348.084 86.015 345.184 86.0847C338.166 86.2534 334.383 96.5416 327.372 96.1798C322.901 95.949 319.933 91.4071 315.77 89.7602C310.35 87.6163 303.453 91.8094 302.862 97.6077L303.558 96.9706C324.625 102.107 346.488 103.117 367.94 99.9449C362.975 96.4406 358.011 92.9362 353.046 89.4319Z" fill="#F0F0F0"/>
<path d="M366.178 101.807C379.627 101.807 390.53 90.9038 390.53 77.4544C390.53 64.005 379.627 53.1021 366.178 53.1021C352.728 53.1021 341.825 64.005 341.825 77.4544C341.825 90.9038 352.728 101.807 366.178 101.807Z" fill="#FF6582"/>
<path d="M423.18 72.8025C420.16 70.6708 416.856 68.448 413.161 68.5368C404.217 68.7519 399.395 81.8632 390.46 81.4022C384.762 81.1081 380.98 75.3198 375.675 73.221C368.768 70.4887 359.978 75.8324 359.224 83.2219L360.111 82.41C386.96 88.9554 414.823 90.2426 442.161 86.2005C435.834 81.7345 429.507 77.2685 423.18 72.8025Z" fill="#F0F0F0"/>
<path d="M642.23 317.264L616.387 178.89C615.945 176.609 614.741 174.546 612.972 173.039C611.204 171.532 608.976 170.67 606.653 170.596C606.444 170.591 606.235 170.591 606.026 170.596L588.421 171.227L586.527 171.297L577.74 171.613L575.846 171.678L570.194 171.882L456.233 175.974C456.061 175.983 455.884 175.983 455.713 175.978L430.176 175.444L420.725 175.249L420.424 175.244L413.448 175.096L352.669 173.833L336.555 173.494L328.609 173.331L326.705 173.289L317.645 173.104L315.745 173.062L306.476 172.871L304.577 172.83L294.393 172.616L292.795 172.583L283.712 172.393L282.277 172.365H282.068C279.656 172.375 277.326 173.237 275.489 174.799C273.651 176.361 272.426 178.522 272.028 180.901L248.655 324.49C248.418 325.945 248.499 327.433 248.894 328.853C249.29 330.273 249.989 331.59 250.943 332.713C251.898 333.836 253.085 334.738 254.423 335.356C255.76 335.975 257.217 336.295 258.69 336.295H392.918C394.893 336.3 396.816 336.935 398.407 338.106L400.952 339.992C402.706 341.282 404.825 341.982 407.003 341.988H486.107C487.444 341.992 488.768 341.73 490.002 341.218C491.237 340.707 492.358 339.955 493.3 339.007C494.912 337.396 497.062 336.438 499.337 336.318L632.766 329.287C634.213 329.212 635.627 328.828 636.913 328.161C638.2 327.495 639.329 326.561 640.225 325.422C641.121 324.284 641.764 322.967 642.11 321.56C642.455 320.153 642.497 318.688 642.23 317.264V317.264Z" fill="#CCCCCC"/>
<path d="M621.082 313.503L606.677 170.782C606.672 170.721 606.663 170.656 606.654 170.596C606.384 168.316 605.258 166.223 603.505 164.74L572.516 138.925C571.169 137.793 569.494 137.124 567.738 137.016C553.56 136.106 481.482 132.734 454.877 155.828C454.07 156.531 453.118 157.048 452.09 157.343C451.061 157.638 449.98 157.705 448.923 157.537C447.864 157.365 446.854 156.967 445.963 156.369C445.072 155.771 444.32 154.988 443.759 154.073C441.497 150.547 438.533 147.525 435.052 145.194C433.489 144.109 431.861 143.121 430.176 142.236C428.685 141.451 427.065 140.689 425.3 139.956C423.781 139.324 422.161 138.716 420.424 138.135C411.419 135.126 399.382 132.878 383.296 132.126C376.622 131.81 369.369 131.768 361.739 131.996C354.773 132.2 347.37 132.623 339.741 133.254L339.629 133.259L288.003 164.777C286.845 165.499 285.867 166.474 285.142 167.629C284.418 168.785 283.965 170.09 283.819 171.446L283.712 172.393L267.319 318.867C267.177 320.111 267.292 321.371 267.655 322.57C268.018 323.769 268.623 324.881 269.432 325.837C270.219 326.769 271.2 327.52 272.305 328.036C273.411 328.553 274.616 328.823 275.836 328.828H403.042C404.733 328.836 406.371 329.417 407.69 330.476L413.244 334.925C414.691 336.087 416.483 336.737 418.339 336.773L474.27 337.688H474.404C475.817 337.686 477.205 337.325 478.44 336.639L489.228 330.648C490.212 330.1 491.307 329.783 492.432 329.719L612.988 323.353C614.163 323.29 615.311 322.98 616.359 322.444C617.406 321.908 618.329 321.158 619.067 320.241C619.834 319.308 620.407 318.232 620.753 317.075C621.099 315.918 621.211 314.704 621.082 313.503V313.503Z" fill="#E6E6E6"/>
<path d="M579.002 287.764L577.315 265.55L570.196 171.885L569.137 158.029C568.87 154.389 567.256 150.98 564.612 148.465C561.967 145.951 558.481 144.511 554.833 144.427C528.747 143.757 481.513 144.936 458.334 160.466C455.756 162.219 452.629 162.975 449.535 162.593C446.442 162.211 443.592 160.717 441.518 158.39C438.311 154.869 434.46 151.994 430.173 149.919C427.036 148.345 423.775 147.033 420.422 145.994C410.611 142.86 398.23 140.956 383.28 140.281L347.799 140.074H347.739C345.281 140.076 342.916 141.014 341.125 142.697C339.333 144.38 338.25 146.682 338.095 149.135L336.555 173.492L329.824 280.311C329.698 282.301 329.978 284.295 330.646 286.174C331.315 288.052 332.358 289.775 333.713 291.238C335.068 292.702 336.705 293.874 338.527 294.685C340.349 295.496 342.316 295.928 344.31 295.955C403.867 296.839 429.885 309.409 441.23 319.79C443.642 322.003 446.724 323.348 449.987 323.613C453.25 323.877 456.508 323.046 459.245 321.25C479.839 307.762 514.074 304.012 541.324 303.429C549.669 303.255 557.357 303.369 563.8 303.596C565.871 303.671 567.934 303.307 569.854 302.53C571.774 301.752 573.509 300.577 574.944 299.083C576.379 297.588 577.483 295.807 578.182 293.857C578.881 291.906 579.161 289.83 579.002 287.764V287.764Z" fill="white"/>
<path d="M283.336 318.747C283.313 318.747 283.29 318.746 283.268 318.744C283.144 318.735 283.023 318.702 282.911 318.647C282.8 318.591 282.7 318.514 282.619 318.42C282.537 318.326 282.475 318.217 282.435 318.099C282.396 317.981 282.38 317.856 282.389 317.732L292.636 173.04C292.644 172.915 292.676 172.793 292.731 172.681C292.786 172.569 292.863 172.469 292.957 172.387C293.052 172.305 293.161 172.243 293.28 172.204C293.399 172.165 293.524 172.15 293.649 172.161C293.773 172.169 293.894 172.202 294.006 172.258C294.117 172.314 294.216 172.391 294.298 172.485C294.38 172.579 294.442 172.688 294.481 172.806C294.521 172.924 294.537 173.049 294.528 173.173L284.281 317.865C284.264 318.104 284.157 318.328 283.982 318.492C283.806 318.656 283.576 318.747 283.336 318.747Z" fill="white"/>
<path d="M295.667 313.055C295.645 313.055 295.622 313.055 295.599 313.053C295.475 313.044 295.354 313.011 295.243 312.955C295.131 312.9 295.032 312.823 294.95 312.729C294.869 312.635 294.806 312.525 294.767 312.407C294.727 312.289 294.712 312.164 294.72 312.04L304.968 167.348C304.975 167.223 305.007 167.101 305.062 166.989C305.117 166.877 305.194 166.777 305.289 166.695C305.383 166.614 305.493 166.551 305.612 166.512C305.73 166.474 305.856 166.459 305.98 166.469C306.104 166.478 306.226 166.511 306.337 166.567C306.448 166.622 306.548 166.699 306.629 166.793C306.711 166.887 306.773 166.996 306.813 167.115C306.852 167.233 306.868 167.357 306.859 167.482L296.612 312.174C296.595 312.413 296.489 312.637 296.313 312.801C296.138 312.964 295.907 313.055 295.667 313.055V313.055Z" fill="white"/>
<path d="M307.05 310.21C307.028 310.21 307.005 310.209 306.982 310.207C306.858 310.198 306.737 310.165 306.626 310.11C306.514 310.054 306.415 309.977 306.333 309.883C306.252 309.789 306.189 309.68 306.15 309.562C306.11 309.443 306.095 309.319 306.103 309.194L316.351 164.503C316.358 164.378 316.39 164.256 316.445 164.144C316.5 164.032 316.577 163.932 316.672 163.85C316.766 163.768 316.876 163.706 316.995 163.667C317.113 163.628 317.239 163.613 317.363 163.623C317.487 163.632 317.609 163.665 317.72 163.721C317.831 163.777 317.931 163.854 318.012 163.948C318.094 164.042 318.156 164.151 318.196 164.269C318.235 164.387 318.251 164.512 318.242 164.636L307.995 309.328C307.978 309.567 307.872 309.791 307.696 309.955C307.521 310.119 307.29 310.21 307.05 310.21V310.21Z" fill="white"/>
<path d="M318.433 304.518C318.411 304.518 318.388 304.517 318.365 304.515C318.241 304.507 318.12 304.474 318.009 304.418C317.897 304.362 317.798 304.285 317.716 304.191C317.634 304.097 317.572 303.988 317.533 303.87C317.493 303.752 317.478 303.627 317.486 303.503L327.734 158.811C327.741 158.686 327.773 158.564 327.828 158.452C327.883 158.34 327.96 158.24 328.055 158.158C328.149 158.076 328.259 158.014 328.378 157.975C328.496 157.936 328.622 157.922 328.746 157.932C328.87 157.941 328.992 157.974 329.103 158.029C329.214 158.085 329.314 158.162 329.395 158.256C329.477 158.35 329.539 158.459 329.579 158.577C329.618 158.695 329.634 158.82 329.625 158.944L319.378 303.636C319.361 303.876 319.254 304.1 319.079 304.263C318.904 304.427 318.673 304.518 318.433 304.518V304.518Z" fill="white"/>
<path d="M609.646 319.695C609.668 319.695 609.691 319.694 609.713 319.693C609.838 319.684 609.959 319.651 610.07 319.595C610.182 319.539 610.281 319.462 610.363 319.368C610.444 319.274 610.507 319.165 610.546 319.047C610.586 318.929 610.601 318.804 610.593 318.68L600.345 173.988C600.338 173.863 600.306 173.741 600.251 173.629C600.195 173.517 600.118 173.417 600.024 173.335C599.93 173.253 599.82 173.191 599.701 173.152C599.583 173.113 599.457 173.099 599.333 173.109C599.209 173.118 599.087 173.151 598.976 173.206C598.864 173.262 598.765 173.339 598.683 173.433C598.602 173.527 598.54 173.636 598.5 173.754C598.461 173.873 598.445 173.997 598.454 174.121L608.701 318.813C608.718 319.053 608.824 319.277 609 319.44C609.175 319.604 609.406 319.695 609.646 319.695V319.695Z" fill="white"/>
<path d="M597.314 311.158C597.337 311.158 597.36 311.157 597.382 311.155C597.506 311.147 597.628 311.114 597.739 311.058C597.85 311.002 597.95 310.925 598.031 310.831C598.113 310.737 598.175 310.628 598.215 310.51C598.254 310.392 598.27 310.267 598.261 310.143L588.014 165.451C588.007 165.326 587.974 165.204 587.919 165.092C587.864 164.98 587.787 164.88 587.693 164.798C587.598 164.716 587.489 164.654 587.37 164.615C587.251 164.576 587.126 164.562 587.001 164.572C586.877 164.581 586.756 164.614 586.644 164.669C586.533 164.725 586.434 164.802 586.352 164.896C586.27 164.99 586.208 165.099 586.169 165.217C586.129 165.335 586.113 165.46 586.122 165.584L596.37 310.276C596.386 310.516 596.493 310.74 596.668 310.903C596.844 311.067 597.075 311.158 597.314 311.158V311.158Z" fill="white"/>
<path d="M585.931 301.672C585.953 301.672 585.977 301.671 585.999 301.67C586.123 301.661 586.244 301.628 586.356 301.572C586.467 301.517 586.567 301.44 586.648 301.346C586.73 301.251 586.792 301.142 586.832 301.024C586.871 300.906 586.887 300.781 586.878 300.657L576.631 155.965C576.623 155.84 576.591 155.718 576.536 155.606C576.481 155.494 576.404 155.394 576.31 155.312C576.215 155.23 576.105 155.168 575.987 155.129C575.868 155.091 575.743 155.076 575.618 155.086C575.494 155.095 575.373 155.128 575.261 155.184C575.15 155.239 575.051 155.316 574.969 155.41C574.887 155.504 574.825 155.613 574.786 155.732C574.746 155.85 574.73 155.974 574.739 156.099L584.986 300.791C585.003 301.03 585.11 301.254 585.285 301.418C585.461 301.581 585.691 301.672 585.931 301.672V301.672Z" fill="white"/>
<path d="M353.14 172.76C374.522 165.938 398.376 167.744 418.633 177.355C424.412 180.082 429.871 183.444 434.907 187.378C436.332 188.497 438.36 186.496 436.92 185.366C418.315 170.936 394.938 164.08 371.486 166.178C364.998 166.759 358.592 168.045 352.384 170.016C350.645 170.57 351.388 173.319 353.14 172.76H353.14Z" fill="#3F3D56"/>
<path d="M470.797 188.482C490.676 178.034 514.482 175.755 536.096 181.686C542.258 183.373 548.213 185.741 553.851 188.746C555.467 189.608 556.906 187.152 555.288 186.289C534.688 175.296 509.959 172.766 487.463 178.894C481.188 180.606 475.118 182.997 469.361 186.025C467.739 186.878 469.176 189.335 470.797 188.482V188.482Z" fill="#3F3D56"/>
<path d="M470.797 207.454C490.676 197.005 514.482 194.726 536.096 200.658C542.258 202.345 548.213 204.712 553.851 207.717C555.467 208.579 556.906 206.123 555.288 205.26C534.688 194.268 509.959 191.738 487.463 197.865C481.188 199.577 475.118 201.969 469.361 204.997C467.739 205.849 469.176 208.306 470.797 207.454V207.454Z" fill="#3F3D56"/>
<path d="M555.984 225.408C555.999 225.164 555.94 224.921 555.815 224.71C555.69 224.5 555.504 224.332 555.283 224.228C538.78 215.587 520.069 212.082 501.557 214.165C501.441 214.174 501.335 214.193 501.209 214.202H501.204C501.091 214.212 500.977 214.229 500.865 214.253C489.855 215.52 479.174 218.812 469.361 223.964C469.147 224.091 468.97 224.272 468.847 224.489C468.724 224.705 468.66 224.95 468.66 225.199V260.59C468.664 260.808 468.717 261.022 468.815 261.216C468.914 261.411 469.055 261.58 469.229 261.711C469.402 261.843 469.603 261.933 469.817 261.976C470.031 262.018 470.251 262.011 470.462 261.955C470.898 261.83 471.335 261.709 471.781 261.593C481.701 258.908 491.885 257.315 502.152 256.842C502.37 256.833 502.588 256.824 502.816 256.815C511.178 256.455 519.555 256.757 527.87 257.715C528.044 257.725 528.218 257.744 528.39 257.771C528.817 257.818 529.254 257.869 529.681 257.924C529.853 257.943 530.015 257.962 530.173 257.99C531.836 258.198 533.484 258.435 535.137 258.691C537.524 259.072 539.911 259.496 542.298 259.963C542.447 259.991 542.6 260.028 542.753 260.056C546.585 260.818 550.397 261.7 554.191 262.675C554.403 262.73 554.624 262.736 554.837 262.692C555.051 262.649 555.253 262.558 555.426 262.425C555.6 262.293 555.741 262.123 555.839 261.928C555.937 261.733 555.99 261.519 555.993 261.301V225.464C555.995 225.445 555.991 225.425 555.984 225.408Z" fill="#3F3D56"/>
<path d="M503.788 216.095C502.746 215.584 501.551 215.479 500.435 215.8C499.942 215.985 499.491 216.266 499.108 216.626C498.724 216.987 498.416 217.42 498.202 217.901C497.815 218.822 497.567 219.796 497.467 220.79C497.408 221.181 497.404 221.674 497.797 221.857C497.94 221.909 498.094 221.92 498.243 221.891C498.392 221.861 498.53 221.792 498.642 221.69C498.845 221.49 499.012 221.256 499.136 221C499.819 219.938 500.758 219.065 501.867 218.462C502.976 217.859 504.219 217.546 505.481 217.55L506.532 217.969C505.705 217.224 504.782 216.594 503.788 216.095V216.095Z" fill="#FF6582"/>
<path d="M515.159 224.252C514.344 223.052 513.377 221.77 511.864 221.378C510.112 220.924 508.312 221.826 506.786 222.716C502.246 225.36 497.849 228.243 493.615 231.353L493.62 231.4L503.448 230.797C505.815 230.651 508.263 230.486 510.355 229.489C511.106 229.018 511.945 228.706 512.822 228.571C513.365 228.6 513.898 228.737 514.388 228.973C514.879 229.21 515.317 229.541 515.679 229.948C520.209 234.241 521.519 240.806 526.601 244.578C523.367 237.492 519.54 230.692 515.159 224.252V224.252Z" fill="white"/>
<path d="M502.817 256.814C502.59 256.823 502.372 256.833 502.153 256.842C500.569 256.273 498.947 255.771 497.306 255.334C496.244 255.05 495.162 254.793 494.081 254.575C492.857 254.31 491.624 254.101 490.391 253.921C488.043 253.579 485.677 253.38 483.305 253.323C483.287 253.325 483.269 253.323 483.252 253.318C483.235 253.312 483.219 253.303 483.205 253.291C483.192 253.279 483.181 253.264 483.174 253.248C483.166 253.231 483.163 253.213 483.163 253.195C483.163 253.177 483.166 253.159 483.174 253.143C483.181 253.126 483.192 253.111 483.205 253.099C483.219 253.087 483.235 253.078 483.252 253.073C483.269 253.067 483.287 253.065 483.305 253.067C483.609 253.067 483.912 253.077 484.206 253.096C486.583 253.183 488.953 253.415 491.302 253.788C492.525 253.987 493.749 254.224 494.963 254.49C496.064 254.737 497.164 255.012 498.245 255.315C499.791 255.752 501.315 256.251 502.817 256.814Z" fill="white"/>
<path d="M530.175 257.99C530.013 257.962 529.852 257.943 529.681 257.924C529.027 257.383 528.363 256.871 527.67 256.368C526.807 255.742 525.915 255.154 525.005 254.604C522.988 253.379 520.883 252.308 518.706 251.397C515.265 249.965 511.703 248.841 508.063 248.039C503.911 247.13 499.707 246.471 495.476 246.066C491.245 245.63 486.995 245.365 482.745 245.099C482.565 245.089 482.556 244.824 482.745 244.833C483.277 244.871 483.808 244.9 484.348 244.938C488.646 245.203 492.943 245.507 497.211 245.991C501.444 246.444 505.642 247.173 509.78 248.172C513.312 249.043 516.76 250.227 520.082 251.71C521.992 252.569 523.843 253.554 525.621 254.661C526.75 255.372 527.841 256.131 528.884 256.937C529.321 257.279 529.757 257.62 530.175 257.99Z" fill="white"/>
<path d="M528.391 257.772C528.218 257.744 528.044 257.725 527.87 257.715C527.67 257.554 527.461 257.402 527.253 257.25C525.793 256.205 524.269 255.251 522.69 254.395C521.257 253.616 519.784 252.91 518.279 252.28C514.84 250.842 511.278 249.719 507.636 248.922C503.484 248.012 499.28 247.353 495.048 246.949C490.818 246.512 486.568 246.247 482.319 245.981C482.138 245.962 482.138 245.706 482.319 245.715C482.859 245.753 483.39 245.782 483.922 245.82C488.219 246.085 492.516 246.389 496.784 246.873C501.017 247.326 505.215 248.055 509.353 249.055C512.886 249.923 516.334 251.108 519.655 252.593C520.907 253.162 522.131 253.778 523.326 254.452C525.098 255.425 526.792 256.535 528.391 257.772V257.772Z" fill="white"/>
<path d="M542.753 260.058C542.601 260.03 542.449 259.992 542.297 259.963C542.127 259.783 541.965 259.593 541.804 259.404C540.989 258.464 540.182 257.516 539.385 256.558C536.246 252.82 533.267 248.969 530.459 245.042C528.05 241.684 525.764 238.26 523.601 234.769C522.567 233.118 521.571 231.449 520.594 229.76C519.835 228.451 519.095 227.139 518.374 225.824C518.166 225.444 517.966 225.065 517.767 224.685C517.302 223.794 516.837 222.893 516.344 222.011C515.808 220.93 515.021 219.993 514.049 219.279C513.563 218.953 513 218.76 512.417 218.719C511.595 218.722 510.786 218.931 510.065 219.326C504.758 221.797 499.751 224.869 495.143 228.48C490.643 231.98 486.574 236.002 483.021 240.46C482.907 240.593 482.66 240.47 482.764 240.328C483.191 239.796 483.628 239.265 484.064 238.743C487.479 234.704 491.324 231.049 495.532 227.844C495.542 227.835 495.561 227.825 495.57 227.816C495.94 227.522 496.31 227.237 496.69 226.962C499.039 225.232 501.484 223.636 504.013 222.181C505.303 221.432 506.621 220.72 507.968 220.047C508.3 219.876 508.642 219.705 508.983 219.544C509.325 219.373 509.666 219.212 510.008 219.051C510.684 218.706 511.423 218.503 512.18 218.453C514.817 218.415 516.173 221.071 517.113 222.864C517.407 223.424 517.71 223.984 518.004 224.543C519.143 226.659 520.328 228.764 521.562 230.842C522.311 232.132 523.089 233.413 523.876 234.684C525.005 236.495 526.162 238.288 527.367 240.072C527.367 240.073 527.367 240.074 527.367 240.075C527.368 240.076 527.369 240.077 527.37 240.078C527.37 240.079 527.371 240.08 527.373 240.08C527.374 240.081 527.375 240.081 527.376 240.081C528.771 242.187 530.222 244.255 531.721 246.313C534.291 249.832 536.985 253.273 539.803 256.634C540.77 257.791 541.754 258.932 542.753 260.058Z" fill="white"/>
<path d="M555.995 255.875V256.311C555.056 255.211 554.098 254.12 553.149 253.029C552.751 252.574 552.352 252.119 551.954 251.663C550.265 249.747 548.568 247.837 546.86 245.934C545.143 244.037 543.426 242.139 541.69 240.252C541.273 239.797 540.856 239.341 540.429 238.886C540.087 238.503 539.716 238.148 539.319 237.823C538.918 237.49 538.458 237.236 537.962 237.074C537.392 236.916 536.791 236.909 536.217 237.055C535.562 237.207 534.936 237.444 534.301 237.643C533.646 237.861 533.001 238.07 532.347 238.279C531.038 238.706 529.738 239.133 528.429 239.559C528.413 239.566 528.396 239.569 528.378 239.569C528.361 239.569 528.343 239.565 528.328 239.558C528.312 239.551 528.297 239.54 528.285 239.528C528.273 239.515 528.264 239.5 528.258 239.483C528.251 239.465 528.247 239.446 528.248 239.427C528.249 239.407 528.254 239.388 528.263 239.371C528.273 239.354 528.285 239.339 528.301 239.327C528.316 239.315 528.334 239.307 528.353 239.303C528.676 239.199 529.008 239.095 529.34 238.99C530.658 238.554 531.967 238.127 533.286 237.7C533.94 237.482 534.595 237.273 535.25 237.065C535.857 236.834 536.498 236.706 537.147 236.685C538.206 236.761 539.2 237.228 539.935 237.994C540.343 238.374 540.713 238.772 541.083 239.18C541.519 239.654 541.956 240.129 542.392 240.603C544.147 242.519 545.889 244.441 547.619 246.37C549.355 248.305 551.075 250.244 552.779 252.185C552.902 252.327 553.026 252.47 553.149 252.612C554.107 253.693 555.046 254.784 555.995 255.875Z" fill="white"/>
<path d="M508.91 218.164L508.648 218.279C508.047 217.264 507.205 216.413 506.196 215.803C505.187 215.192 504.042 214.84 502.864 214.777C498.981 214.502 495.569 217.09 495.259 220.546C495.133 221.97 495.545 223.389 496.414 224.523L496.17 224.667C495.266 223.486 494.837 222.008 494.968 220.526C495.29 216.926 498.843 214.231 502.888 214.518C504.114 214.583 505.306 214.949 506.357 215.586C507.407 216.222 508.285 217.107 508.91 218.164V218.164Z" fill="#FF6582"/>
<path d="M489.72 225.158C488.701 224.715 487.591 224.52 486.482 224.591C485.373 224.661 484.296 224.995 483.342 225.564C486.827 226.099 490.282 226.817 493.693 227.714C492.281 226.978 491.176 225.824 489.72 225.158Z" fill="white"/>
<path d="M483.322 225.561L482.938 225.839C483.068 225.741 483.203 225.65 483.342 225.564L483.322 225.561Z" fill="white"/>
<path d="M539.172 239.571C538.813 239.109 538.336 238.754 537.79 238.545L537.251 238.564C541.485 245.152 547.031 250.796 553.544 255.144C548.753 249.953 543.962 244.762 539.172 239.571Z" fill="white"/>
<path d="M494.881 227.171C494.728 227.019 494.575 226.868 494.422 226.716C493.241 225.431 491.819 224.39 490.237 223.654C489.431 223.314 488.567 223.136 487.693 223.129C486.79 223.15 485.897 223.323 485.052 223.642C484.655 223.783 484.266 223.943 483.883 224.114C483.445 224.31 483.015 224.519 482.588 224.73C481.785 225.126 480.992 225.539 480.21 225.969C478.653 226.825 477.146 227.747 475.687 228.734C474.931 229.245 474.19 229.774 473.465 230.319C472.79 230.826 472.13 231.346 471.483 231.88C471.344 231.993 471.138 231.81 471.276 231.696C471.447 231.555 471.619 231.414 471.792 231.275C472.279 230.883 472.774 230.499 473.277 230.121C474.194 229.433 475.135 228.771 476.099 228.135C477.599 227.146 479.15 226.224 480.753 225.37C481.555 224.943 482.367 224.534 483.19 224.143C483.438 224.025 483.69 223.91 483.944 223.8C484.525 223.54 485.124 223.323 485.737 223.151C486.617 222.899 487.536 222.818 488.446 222.914C489.317 223.025 490.162 223.285 490.944 223.683C492.495 224.552 493.895 225.668 495.087 226.986C495.212 227.111 495.006 227.296 494.881 227.171Z" fill="white"/>
<path d="M353.14 191.731C374.522 184.91 398.376 186.716 418.633 196.326C424.412 199.054 429.871 202.416 434.907 206.35C436.332 207.468 438.36 205.468 436.92 204.338C418.315 189.907 394.938 183.052 371.486 185.15C364.998 185.73 358.592 187.017 352.384 188.987C350.645 189.542 351.388 192.29 353.14 191.731H353.14Z" fill="#3F3D56"/>
<path d="M353.14 210.703C374.522 203.881 398.376 205.687 418.633 215.298C424.412 218.026 429.871 221.388 434.907 225.322C436.332 226.44 438.36 224.44 436.92 223.309C418.315 208.879 394.938 202.024 371.486 204.121C364.998 204.702 358.592 205.989 352.384 207.959C350.645 208.513 351.388 211.262 353.14 210.703H353.14Z" fill="#3F3D56"/>
<path d="M353.14 229.675C374.522 222.853 398.376 224.659 418.633 234.269C424.412 236.997 429.871 240.359 434.907 244.293C436.332 245.412 438.36 243.411 436.92 242.281C418.315 227.85 394.938 220.995 371.486 223.093C364.998 223.673 358.592 224.96 352.384 226.93C350.645 227.485 351.388 230.233 353.14 229.675H353.14Z" fill="#3F3D56"/>
<path d="M353.14 248.646C374.522 241.824 398.376 243.63 418.633 253.241C424.412 255.969 429.871 259.331 434.907 263.265C436.332 264.383 438.36 262.383 436.92 261.253C418.315 246.822 394.938 239.967 371.486 242.064C364.998 242.645 358.592 243.932 352.384 245.902C350.645 246.457 351.388 249.205 353.14 248.646H353.14Z" fill="#3F3D56"/>
<path d="M353.14 267.618C374.522 260.796 398.376 262.602 418.633 272.213C424.412 274.941 429.871 278.303 434.907 282.237C436.332 283.355 438.36 281.355 436.92 280.224C418.315 265.794 394.938 258.939 371.486 261.036C364.998 261.617 358.592 262.904 352.384 264.874C350.645 265.428 351.388 268.177 353.14 267.618L353.14 267.618Z" fill="#3F3D56"/>
<path d="M430.176 142.236V195.408C430.176 196.314 428.597 197.071 426.465 197.275C426.094 197.312 425.704 197.331 425.3 197.331C424.127 197.353 422.959 197.163 421.854 196.769C421.649 196.689 421.45 196.595 421.26 196.486C420.73 196.175 420.424 195.808 420.424 195.408V138.135C422.161 138.716 423.781 139.324 425.3 139.956C427.064 140.689 428.685 141.451 430.176 142.236Z" fill="#6C63FF"/>
<path d="M450.615 160.468H449.221V332.468H450.615V160.468Z" fill="#E6E6E6"/>
<path d="M574.951 299.076C573.514 300.571 571.779 301.746 569.857 302.525C567.936 303.304 565.872 303.669 563.8 303.596C557.357 303.369 549.669 303.255 541.325 303.429L541.278 303.389L577.442 256.509L579.002 287.764C579.159 289.829 578.879 291.903 578.181 293.851C577.482 295.8 576.382 297.58 574.951 299.076V299.076Z" fill="#F2F2F2"/>
<path d="M484.922 462.92L482.993 478.577L481.52 490.478L480.93 495.28H472.546V491.014L472.539 476.896V462.92H484.922Z" fill="#FFB6B6"/>
<path d="M426.456 461.279L424.079 468.619L422.17 474.506L421.842 475.517L420.536 479.542L417.777 488.054L416.404 492.293L408.776 490.82L408.167 490.706L408.662 488.148L408.964 486.587L412.299 469.295L412.841 466.509L412.928 466.061L413.176 464.768L414.301 458.935L422.431 460.502L423.369 460.683L426.456 461.279Z" fill="#FFB6B6"/>
<path d="M497.519 369.676C492.724 396.029 491.525 407.407 491.525 407.407C491.525 407.407 495.121 411.6 492.724 413.997C490.326 416.395 492.724 421.183 492.724 421.183L487.333 479.28L482.993 478.577L472.539 476.896L468.768 476.287L471.166 421.786C471.166 421.786 468.768 416.991 469.967 415.792C471.166 414.593 468.768 407.407 468.768 407.407L465.775 350.509L447.204 412.799C447.204 412.799 449.005 415.196 447.204 416.991C445.409 418.786 441.819 427.773 441.819 427.773L430.776 466.415L429.838 469.697L424.079 468.619L417.81 467.44L416.658 467.226L414.609 466.837L413.29 466.59L412.841 466.509L410.671 466.101L411.328 463.187L411.669 461.654L421.011 420.159L421.226 419.201L421.453 418.19C421.453 418.19 420.255 415.196 422.05 413.395C422.575 412.846 422.958 412.177 423.167 411.447C423.376 410.716 423.404 409.946 423.248 409.202C423.19 409.14 423.136 409.072 423.088 409.001C422.876 408.71 422.729 408.377 422.659 408.024C422.498 407.274 422.639 406.222 423.851 405.01C424.192 404.647 424.479 404.237 424.702 403.791C426.523 400.342 427.441 393.036 427.441 393.036C427.441 393.036 429.061 335.166 434.365 326.326C434.575 325.94 434.871 325.608 435.229 325.355C441.217 321.765 498.711 325.355 498.711 325.355C498.711 325.355 498.791 325.77 498.919 326.56C499.608 331.001 501.584 347.321 497.519 369.676Z" fill="#2F2E41"/>
<path d="M495.634 263.361L497.313 253.248L528.229 258.451L572.092 261.589C573.044 260.536 574.31 259.819 575.703 259.543C577.095 259.268 578.539 259.45 579.82 260.062C581.101 260.674 582.149 261.683 582.81 262.94C583.471 264.196 583.708 265.632 583.487 267.034C583.266 268.436 582.598 269.729 581.582 270.721C580.566 271.712 579.258 272.349 577.851 272.537C576.444 272.725 575.014 272.453 573.774 271.762C572.534 271.072 571.55 269.999 570.969 268.704L544.067 270.514L495.634 263.361Z" fill="#FFB6B6"/>
<path d="M472.525 256.361L474.708 247.333C474.708 247.333 486.562 245.151 495.934 247.239L531.19 254.005L528.337 275.317L472.525 256.361Z" fill="#6C63FF"/>
<path d="M390.691 330.702L410.416 287.852L424.811 257.535L437.295 264.882L398.432 335.418C398.773 336.675 398.734 338.006 398.319 339.241C397.904 340.476 397.132 341.56 396.101 342.357C395.07 343.153 393.826 343.626 392.526 343.716C391.226 343.805 389.928 343.507 388.798 342.859C387.667 342.211 386.754 341.243 386.174 340.076C385.594 338.909 385.373 337.597 385.539 336.304C385.705 335.012 386.25 333.798 387.106 332.815C387.962 331.833 389.09 331.126 390.348 330.785C390.462 330.754 390.576 330.726 390.692 330.702L390.691 330.702Z" fill="#FFB6B6"/>
<path d="M447.578 244.545L438.004 240.152C438.004 240.152 436.306 239.563 432.645 244.632C428.984 249.701 397.492 297.532 397.492 297.532L417.49 306.572L447.578 244.545Z" fill="#6C63FF"/>
<path d="M495.758 504.602L483.294 495.99V490.371L481.52 490.478L472.545 491.014L470.181 491.155L468.547 510.723L468.527 510.998H474.414L474.468 510.723L475.465 505.439L478.017 510.723L478.151 510.998H493.769C494.237 510.997 494.702 510.904 495.135 510.723C495.714 510.479 496.217 510.083 496.591 509.577C496.965 509.071 497.196 508.473 497.26 507.847C497.323 507.221 497.218 506.59 496.953 506.019C496.689 505.448 496.276 504.959 495.758 504.602H495.758Z" fill="#2F2E41"/>
<path d="M429.282 505.118L423.851 499.198L420.06 495.059L419.438 494.376L419.344 494.275L419.042 493.947L420.295 488.469L417.777 488.054L408.963 486.587L408.488 486.514L407.55 486.353L407.336 486.319L404.329 495.796L401.603 504.361L401.309 505.299L404.932 506.123L407.048 506.605L408.093 504.207L408.207 503.953L408.89 502.379V502.372L409.312 501.421L410.698 507.435L410.939 507.489L410.972 507.495L411.823 507.69L413.484 508.071L425.097 510.723L425.92 510.911C426.828 511.113 427.778 510.948 428.565 510.453C429.351 509.957 429.91 509.171 430.119 508.266C430.245 507.712 430.235 507.137 430.089 506.589C429.943 506.04 429.667 505.536 429.282 505.118V505.118Z" fill="#2F2E41"/>
<path d="M483.033 216.915C481.679 219.401 479.798 221.561 477.523 223.245C475.248 224.929 472.633 226.097 469.86 226.666C469.552 226.733 469.244 226.787 468.929 226.834C464.578 227.514 460.125 226.702 456.295 224.529C452.464 222.357 449.481 218.952 447.832 214.869C446.182 210.786 445.962 206.265 447.209 202.042C448.455 197.818 451.094 194.141 454.696 191.607C458.299 189.074 462.652 187.835 467.048 188.09C471.444 188.346 475.625 190.081 478.909 193.015C482.194 195.948 484.389 199.907 485.137 204.246C485.886 208.586 485.144 213.051 483.033 216.915V216.915Z" fill="#FFB6B6"/>
<path d="M475.278 190.442C468.896 186.052 463.275 185.384 458.659 186.629C458.06 185.703 457.221 184.958 456.231 184.473C452.63 175.4 441.673 169.952 432.269 172.6C422.804 175.266 416.274 185.75 418.055 195.42C419.159 201.414 422.931 206.605 424.448 212.508C427.385 223.935 420.22 237.024 409.012 240.708C419.624 242.839 431.306 236.356 435.114 226.224C436.963 221.302 437.074 215.928 437.309 210.676C437.371 207.05 437.815 203.442 438.635 199.909C439.041 198.325 439.615 196.788 440.348 195.325C441.944 192.11 444.593 189.539 447.856 188.041C447.564 188.945 447.491 189.905 447.643 190.842C447.795 191.779 448.167 192.667 448.73 193.432C446.241 196.55 444.886 199.921 444.886 201.941C439.716 211.39 447.11 219.507 456.56 224.677C460.329 226.75 464.681 227.509 468.929 226.834L469.324 225.146L469.86 226.666L471.648 231.763C473.711 232.761 475.756 233.854 477.783 235.044C477.013 231.428 476.39 227.818 475.961 224.289C475.367 219.485 477.436 212.334 478.929 207.985C479.854 205.304 480.329 202.489 480.334 199.654V199.53L481.787 204.198L487.078 201.941C486.094 196.295 487.078 189.886 475.278 190.442Z" fill="#2F2E41"/>
<path d="M434.628 319.966C435.324 317.214 435.324 314.333 434.628 311.581C433.431 307.388 435.826 305.592 435.826 305.592L436.425 240.908C438.955 238.378 445.735 238.337 449.528 238.533V235.685C449.528 234.636 449.944 233.63 450.686 232.888C451.428 232.147 452.434 231.73 453.483 231.73H471.022C472.07 231.73 473.076 232.147 473.818 232.888C474.56 233.63 474.977 234.636 474.977 235.685V239.099L480.121 239.18C489.079 239.848 496.916 248.694 496.916 248.694L489.13 278.64C489.13 278.64 491.526 303.196 494.521 306.191C497.515 309.185 496.317 310.982 496.317 310.982C496.317 310.982 494.52 317.57 498.114 319.966C501.708 322.361 499.312 326.554 499.312 326.554C499.312 326.554 434.628 327.752 432.832 325.955C431.035 324.158 434.628 319.966 434.628 319.966Z" fill="#6C63FF"/>
<path d="M553.808 511.52C553.808 511.625 553.788 511.729 553.748 511.825C553.708 511.922 553.649 512.01 553.575 512.084C553.501 512.158 553.413 512.217 553.316 512.257C553.219 512.297 553.116 512.317 553.011 512.317H365.298C365.087 512.317 364.884 512.233 364.735 512.084C364.585 511.934 364.502 511.731 364.502 511.52C364.502 511.309 364.585 511.106 364.735 510.957C364.884 510.807 365.087 510.723 365.298 510.723H553.011C553.116 510.723 553.219 510.743 553.316 510.783C553.413 510.823 553.501 510.882 553.575 510.956C553.649 511.03 553.708 511.118 553.748 511.215C553.788 511.312 553.808 511.415 553.808 511.52V511.52Z" fill="#CCCCCC"/>
<path d="M827.435 79.8573C820.691 75.1022 813.312 70.1436 805.06 70.3419C785.086 70.8216 774.317 100.069 754.363 99.0407C741.638 98.3848 733.191 85.4728 721.343 80.791C705.918 74.696 686.288 86.6163 684.605 103.1L686.586 101.289C746.547 115.89 808.77 118.761 869.823 109.745C855.694 99.7821 841.565 89.8197 827.435 79.8573Z" fill="#F0F0F0"/>
<path d="M185.032 77.5128C178.288 72.7576 170.909 67.7991 162.656 67.9973C142.682 68.4771 131.913 97.7247 111.96 96.6962C99.2349 96.0402 90.7877 83.1283 78.9395 78.4464C63.5143 72.3515 43.8845 84.2717 42.2017 100.755L44.1827 98.9445C104.144 113.545 166.367 116.417 227.42 107.4C213.291 97.4376 199.161 87.4752 185.032 77.5128Z" fill="#F0F0F0"/>
<path d="M798.612 504.009C793.541 476.872 801.524 446 823.711 429.574C822.454 459.569 831.847 489.041 850.227 512.777C857.349 521.906 866.221 531.317 865.945 542.892C865.774 550.094 861.879 556.803 856.746 561.858C851.613 566.912 845.29 570.557 839.043 574.144L838.07 575.657C819.756 555 803.682 531.146 798.612 504.009Z" fill="#F0F0F0"/>
<path d="M1.46882 515.732C-3.60153 488.595 4.38119 457.723 26.5685 441.297C25.3111 471.291 34.7037 500.764 53.0844 524.5C60.2063 533.628 69.078 543.04 68.8025 554.614C68.6311 561.816 64.7362 568.526 59.6034 573.58C54.4702 578.635 48.1471 582.279 41.8998 585.867L40.9273 587.38C22.6136 566.723 6.53916 542.868 1.46882 515.732Z" fill="#F0F0F0"/>
<path d="M824.116 429.989C814.794 450.851 812.283 474.12 816.939 496.491C817.966 501.278 819.424 506.044 821.896 510.297C824.338 514.423 827.841 517.821 832.04 520.136C835.912 522.373 840.132 524.213 843.393 527.353C846.829 530.662 848.36 535.178 848.232 539.897C848.076 545.671 845.855 551.044 843.5 556.223C840.885 561.974 838.078 567.905 838.248 574.37C838.268 575.154 837.052 575.14 837.031 574.358C836.736 563.11 844.868 554.076 846.68 543.283C847.526 538.247 846.859 532.925 843.318 529.021C840.222 525.608 835.872 523.707 831.932 521.475C827.795 519.132 824.273 516.237 821.655 512.224C818.977 508.119 817.33 503.4 816.185 498.66C813.67 487.894 812.863 476.799 813.794 465.782C814.788 453.202 817.925 440.885 823.072 429.364C823.391 428.651 824.433 429.281 824.116 429.989H824.116Z" fill="white"/>
<path d="M26.973 441.712C17.6513 462.574 15.1401 485.843 19.796 508.214C20.8227 513 22.2807 517.767 24.7535 522.019C27.1956 526.146 30.6982 529.543 34.8974 531.858C38.7693 534.096 42.989 535.936 46.2496 539.075C49.6866 542.385 51.2171 546.901 51.0895 551.62C50.9334 557.394 48.712 562.767 46.357 567.946C43.7423 573.697 40.9353 579.628 41.1049 586.093C41.1254 586.876 39.9088 586.863 39.8882 586.08C39.5932 574.832 47.7253 565.799 49.5373 555.006C50.3828 549.97 49.7157 544.648 46.175 540.744C43.0788 537.33 38.7291 535.429 34.789 533.198C30.652 530.855 27.1299 527.96 24.512 523.947C21.8341 519.841 20.1866 515.122 19.0421 510.383C16.5269 499.616 15.7202 488.522 16.6515 477.505C17.6446 464.925 20.7823 452.608 25.9289 441.087C26.2477 440.374 27.2897 441.003 26.973 441.712H26.973Z" fill="white"/>
<path d="M815.016 489.376C811.156 489.648 807.326 488.539 804.209 486.247C801.092 483.955 798.891 480.63 797.999 476.865C797.821 476.103 798.998 475.791 799.176 476.554C800 480.061 802.05 483.158 804.957 485.287C807.864 487.415 811.436 488.434 815.028 488.159C815.809 488.101 815.792 489.318 815.016 489.376V489.376Z" fill="white"/>
<path d="M17.8729 501.099C14.0136 501.37 10.1833 500.261 7.06615 497.97C3.94903 495.678 1.74804 492.353 0.856228 488.588C0.678394 487.826 1.85472 487.513 2.03279 488.277C2.85678 491.784 4.90732 494.881 7.81434 497.009C10.7214 499.137 14.2934 500.156 17.8856 499.882C18.6663 499.823 18.6491 501.04 17.8729 501.099V501.099Z" fill="white"/>
<path d="M829.928 519.26C835.167 513.335 837.981 505.653 837.808 497.747C837.79 496.963 839.007 496.977 839.024 497.759C839.189 505.988 836.245 513.976 830.779 520.129C830.258 520.715 829.409 519.843 829.928 519.26V519.26Z" fill="white"/>
<path d="M32.785 530.982C38.0241 525.058 40.8378 517.376 40.6648 509.469C40.6471 508.686 41.8637 508.699 41.8815 509.482C42.0461 517.71 39.1018 525.698 33.6363 531.852C33.1149 532.438 32.2665 531.565 32.785 530.982V530.982Z" fill="white"/>
<path d="M816.213 453.958C817.728 454.164 819.271 453.99 820.703 453.453C822.134 452.916 823.41 452.031 824.415 450.879C824.929 450.286 825.777 451.159 825.266 451.748C824.15 453.016 822.74 453.991 821.159 454.588C819.579 455.186 817.877 455.387 816.201 455.175C816.041 455.168 815.89 455.1 815.778 454.986C815.666 454.872 815.602 454.72 815.599 454.56C815.601 454.399 815.667 454.245 815.782 454.132C815.897 454.02 816.052 453.957 816.213 453.958V453.958Z" fill="white"/>
<path d="M19.0705 465.681C20.5856 465.887 22.1283 465.713 23.5598 465.176C24.9914 464.638 26.267 463.754 27.2722 462.601C27.7858 462.009 28.6338 462.882 28.1235 463.471C27.007 464.738 25.597 465.714 24.0166 466.311C22.4363 466.908 20.7338 467.11 19.0577 466.897C18.8981 466.89 18.747 466.823 18.6351 466.709C18.5233 466.595 18.4592 466.442 18.4558 466.282C18.4583 466.121 18.5242 465.968 18.6393 465.855C18.7544 465.742 18.9094 465.68 19.0705 465.681V465.681Z" fill="white"/>
<path d="M914.446 452.02C914.135 452.399 913.825 452.778 913.518 453.167C909.373 458.285 905.652 463.731 902.389 469.452C902.13 469.89 901.874 470.338 901.628 470.783C893.915 484.649 888.844 499.826 886.672 515.543C885.813 521.798 885.431 528.109 885.53 534.422C885.667 543.141 886.51 552.583 883.837 560.601C883.568 561.441 883.247 562.263 882.876 563.063L839.991 576.726C839.878 576.708 839.768 576.7 839.655 576.683L837.967 577.306C837.939 576.981 837.917 576.643 837.89 576.318C837.873 576.129 837.865 575.938 837.848 575.749C837.84 575.623 837.832 575.496 837.818 575.382C837.815 575.34 837.812 575.297 837.812 575.265C837.798 575.151 837.796 575.044 837.785 574.94C837.657 573.051 837.539 571.16 837.441 569.262C837.438 569.252 837.438 569.252 837.444 569.239C836.708 554.784 837.173 540.14 839.845 526.033C839.925 525.609 840.002 525.175 840.102 524.744C841.342 518.392 843.099 512.151 845.355 506.085C846.602 502.767 848.015 499.515 849.59 496.34C853.676 488.145 859.025 480.644 865.442 474.111C878.235 461.089 895.051 452.305 913.069 452.028C913.53 452.021 913.982 452.017 914.446 452.02Z" fill="#F0F0F0"/>
<path d="M117.303 463.743C116.993 464.122 116.682 464.501 116.375 464.89C112.231 470.008 108.509 475.454 105.247 481.174C104.987 481.613 104.731 482.061 104.485 482.506C96.7724 496.371 91.701 511.549 89.5287 527.266C88.6701 533.521 88.2885 539.832 88.3874 546.145C88.5245 554.863 89.3668 564.305 86.6944 572.324C86.425 573.163 86.1038 573.986 85.7327 574.786L42.8486 588.449C42.7356 588.431 42.6252 588.423 42.5117 588.405L40.8243 589.029C40.7965 588.704 40.7746 588.366 40.7468 588.041C40.7299 587.852 40.7225 587.661 40.7055 587.472C40.6973 587.345 40.6895 587.218 40.6748 587.104C40.6719 587.062 40.6694 587.02 40.6696 586.988C40.6549 586.874 40.6534 586.766 40.6418 586.662C40.5142 584.774 40.3962 582.882 40.2983 580.984C40.2952 580.975 40.2952 580.975 40.3016 580.962C39.5655 566.507 40.0298 551.863 42.7019 537.756C42.7824 537.331 42.8594 536.897 42.9595 536.467C44.1992 530.114 45.9561 523.874 48.2125 517.808C49.4587 514.49 50.872 511.238 52.4471 508.063C56.5327 499.868 61.882 492.366 68.2987 485.833C81.0922 472.812 97.9078 464.027 115.926 463.751C116.387 463.744 116.839 463.74 117.303 463.743Z" fill="#F0F0F0"/>
<path d="M914.522 452.595C894.519 463.64 878.504 480.707 868.753 501.372C866.691 505.812 864.986 510.496 864.4 515.38C863.865 520.145 864.616 524.967 866.575 529.343C868.32 533.461 870.581 537.471 871.294 541.94C872.046 546.652 870.549 551.18 867.606 554.871C864.005 559.387 858.996 562.339 853.998 565.057C848.448 568.074 842.635 571.12 838.878 576.384C838.423 577.022 837.46 576.278 837.915 575.641C844.451 566.483 856.383 564.166 864.328 556.639C868.035 553.127 870.706 548.477 870.23 543.228C869.813 538.638 867.485 534.501 865.682 530.347C863.79 525.986 862.72 521.554 863.046 516.774C863.38 511.884 864.906 507.124 866.845 502.65C871.319 492.54 877.355 483.195 884.732 474.96C893.098 465.514 903.019 457.568 914.065 451.468C914.749 451.09 915.202 452.22 914.522 452.595V452.595Z" fill="white"/>
<path d="M117.379 464.318C97.3761 475.363 81.3615 492.43 71.6103 513.095C69.5482 517.535 67.8427 522.218 67.2567 527.103C66.7221 531.868 67.4733 536.689 69.4322 541.066C71.1767 545.183 73.438 549.193 74.1513 553.663C74.903 558.375 73.4058 562.902 70.4628 566.593C66.862 571.109 61.8532 574.062 56.8547 576.779C51.3049 579.797 45.4925 582.843 41.7354 588.107C41.2802 588.745 40.3172 588.001 40.7717 587.364C47.3083 578.205 59.2401 575.889 67.185 568.362C70.8923 564.85 73.5636 560.199 73.0869 554.951C72.67 550.361 70.3417 546.224 68.5393 542.07C66.6467 537.709 65.5774 533.277 65.9034 528.496C66.2368 523.606 67.7628 518.846 69.7024 514.373C74.1763 504.262 80.212 494.918 87.5886 486.682C95.9553 477.236 105.876 469.291 116.922 463.19C117.606 462.813 118.059 463.943 117.379 464.318V464.318Z" fill="white"/>
<path d="M871.501 494.534C868.256 492.427 865.866 489.235 864.757 485.529C863.647 481.822 863.892 477.842 865.447 474.299C865.764 473.583 866.891 474.042 866.573 474.759C865.12 478.056 864.892 481.763 865.932 485.213C866.972 488.662 869.211 491.626 872.244 493.57C872.903 493.993 872.156 494.954 871.501 494.534H871.501Z" fill="white"/>
<path d="M74.3584 506.256C71.1134 504.15 68.7228 500.958 67.6138 497.251C66.5047 493.545 66.7493 489.565 68.3038 486.022C68.6208 485.306 69.748 485.765 69.4306 486.482C67.9769 489.778 67.7495 493.486 68.7893 496.935C69.8291 500.385 72.0677 503.349 75.1011 505.293C75.7598 505.716 75.0133 506.677 74.3584 506.256H74.3584Z" fill="white"/>
<path d="M865.416 527.372C873.166 525.796 880.037 521.357 884.66 514.939C885.117 514.303 886.081 515.047 885.624 515.682C880.801 522.351 873.641 526.956 865.572 528.579C864.803 528.733 864.651 527.526 865.416 527.372H865.416Z" fill="white"/>
<path d="M68.273 539.095C76.0232 537.519 82.8946 533.079 87.517 526.662C87.9745 526.026 88.9377 526.769 88.4808 527.405C83.6581 534.074 76.498 538.679 68.4293 540.302C67.6602 540.456 67.508 539.248 68.273 539.095H68.273Z" fill="white"/>
<path d="M96.6389 478.698C97.7246 479.774 99.0608 480.565 100.527 480.997C101.994 481.43 103.545 481.492 105.041 481.177C105.808 481.013 105.96 482.221 105.198 482.384C103.543 482.724 101.83 482.654 100.209 482.179C98.5871 481.705 97.1066 480.84 95.8962 479.661C95.7729 479.56 95.6927 479.415 95.6722 479.257C95.6517 479.098 95.6923 478.938 95.7857 478.808C95.8847 478.681 96.0298 478.598 96.1896 478.578C96.3494 478.557 96.5108 478.6 96.6389 478.698V478.698Z" fill="white"/>
</g>
<defs>
<clipPath id="clip0_175_98">
<rect width="890.924" height="558" rx="28.1345" fill="white"/>
</clipPath>
</defs>
</svg>
