<svg width="389" height="234" viewBox="0 0 389 234" fill="none" xmlns="http://www.w3.org/2000/svg">
<g clip-path="url(#clip0_20_1468)">
<path d="M20.2957 233.477C20.2697 233.362 17.7529 221.88 22.8929 212.343C28.0328 202.807 39.0044 198.601 39.1147 198.559L39.6161 198.371L39.7346 198.894C39.7606 199.009 42.2774 210.491 37.1375 220.028C31.9978 229.565 21.0259 233.77 20.9156 233.812L20.414 234L20.2957 233.477ZM38.9284 199.647C36.7307 200.593 28.057 204.732 23.7159 212.787C19.3743 220.842 20.6842 230.368 21.1019 232.724C23.2987 231.78 31.969 227.647 36.3144 219.584C40.6557 211.529 39.3463 202.004 38.9284 199.647V199.647Z" fill="#F1F1F1"/>
<path d="M33.2096 216.683C23.9728 222.243 20.4155 233.286 20.4155 233.286C20.4155 233.286 31.8338 235.315 41.0705 229.755C50.3073 224.195 53.8646 213.152 53.8646 213.152C53.8646 213.152 42.4463 211.123 33.2096 216.683Z" fill="#F1F1F1"/>
<path d="M173.088 127.553C173.229 126.825 173.209 126.076 173.029 125.357C172.849 124.638 172.513 123.968 172.046 123.393C171.579 122.818 170.992 122.352 170.326 122.029C169.659 121.705 168.93 121.532 168.19 121.521L163.912 110.759L156.741 111.765L162.995 126.878C163.059 128.124 163.578 129.303 164.453 130.192C165.328 131.081 166.498 131.617 167.742 131.701C168.986 131.784 170.218 131.407 171.203 130.643C172.188 129.878 172.859 128.779 173.088 127.553Z" fill="#9F616A"/>
<path d="M159.877 123.771L157.655 118.47L143.809 92.1008L144.562 43.308L144.707 43.2888C153.566 42.1177 159.561 82.9604 159.812 84.6997L168.56 114.634L170.642 121.232L159.877 123.771Z" fill="#6C63FF"/>
<path d="M138.602 226.658L145.334 226.658L148.536 200.679L138.601 200.679L138.602 226.658Z" fill="#9F616A"/>
<path d="M136.885 224.459L150.143 224.459H150.143C152.384 224.459 154.533 225.35 156.117 226.935C157.702 228.52 158.592 230.67 158.592 232.912V233.187L136.885 233.187L136.885 224.459Z" fill="#2F2E41"/>
<path d="M76.7033 216.396L82.227 220.247L99.7005 200.765L91.5485 195.082L76.7033 216.396Z" fill="#9F616A"/>
<path d="M76.5512 213.61L87.4286 221.194L87.4291 221.194C89.2674 222.476 90.5215 224.436 90.9155 226.643C91.3096 228.849 90.8113 231.123 89.5303 232.962L89.3733 233.187L71.5639 220.771L76.5512 213.61Z" fill="#2F2E41"/>
<path d="M134.902 220.552L134.611 171.816L130.375 141.172L122.478 168.121L122.463 168.143L93.8443 209.712L82.7086 204.067L82.7696 203.922C83.4501 202.302 99.4859 164.266 103.796 164.266C104.173 164.293 104.55 164.227 104.895 164.075C105.241 163.923 105.544 163.69 105.779 163.395C107.044 161.704 106.014 158.118 106.004 158.082C104.77 152.963 107.872 151.22 108.49 150.929L110.152 116.603L110.324 116.615L155.38 119.777L153.49 162.693L149.423 218.921L149.284 218.937L134.902 220.552Z" fill="#2F2E41"/>
<path d="M156.068 127.383L155.873 127.367L107.417 123.459L107.537 107.418L109.908 65.5349L109.922 65.5058L119.58 44.5269L126.427 41.4251L136.416 40.8992L136.44 40.9053L145.557 43.165L155.04 111.275L156.068 127.383Z" fill="#6C63FF"/>
<path d="M137.981 35.5227C144.164 32.1413 146.436 24.3856 143.056 18.1999C139.677 12.0143 131.925 9.74096 125.742 13.1224C119.56 16.5038 117.288 24.2594 120.667 30.4451C124.047 36.6307 131.799 38.9041 137.981 35.5227Z" fill="#9F616A"/>
<path d="M119.031 27.5267V22.5534C119.031 22.5534 115.023 17.8298 119.432 16.6399C119.432 16.6399 120.635 4.7411 131.057 10.2939C131.057 10.2939 145.489 7.91411 143.885 16.2433C143.885 16.2433 147.493 14.0688 146.29 19.6215L143.964 28.5661C143.964 28.5661 145.088 22.6576 141.48 21.8643L139.476 20.6744C139.476 20.6744 133.863 26.2272 125.445 19.4845C125.445 19.4845 121.837 18.623 122.238 22.1927C122.639 25.7623 119.031 27.5267 119.031 27.5267Z" fill="#2F2E41"/>
<path d="M130.534 115.404C130.542 114.663 130.387 113.93 130.081 113.255C129.775 112.58 129.325 111.981 128.762 111.499C128.2 111.017 127.539 110.664 126.825 110.466C126.112 110.267 125.363 110.228 124.633 110.35L118.495 100.531L111.62 102.807L120.484 116.552C120.77 117.767 121.492 118.833 122.512 119.551C123.532 120.268 124.78 120.586 126.018 120.445C127.257 120.303 128.401 119.712 129.233 118.783C130.065 117.854 130.528 116.652 130.534 115.404Z" fill="#9F616A"/>
<path d="M114.68 112.309L103.574 89.751L103.584 89.6962C103.629 89.4464 108.099 64.6135 111.518 55.4856C114.959 46.3 119.668 44.4557 119.867 44.3817L119.966 44.3447L124.189 48.3971L118.339 87.46L124.645 106.299L114.68 112.309Z" fill="#6C63FF"/>
<path d="M389 0H367.498V21.5127H389V0Z" fill="#F1F1F1"/>
<path d="M220.724 83.7124H199.222V105.225H220.724V83.7124Z" fill="#F1F1F1"/>
<path d="M211.291 95.7981H381.284V9.69657H211.291V95.7981Z" fill="white"/>
<path d="M382.687 97.2011H209.889V8.29352H382.687V97.2011ZM212.693 94.3951H379.882V11.0995H212.693V94.3951Z" fill="#E5E5E5"/>
<path d="M362.486 39.8994H231.696V44.2389H362.486V39.8994Z" fill="#E5E5E5"/>
<path d="M362.486 50.4233H231.696V54.7629H362.486V50.4233Z" fill="#E5E5E5"/>
<path d="M362.486 65.9623H338.18V69.7282H362.486V65.9623Z" fill="#6C63FF"/>
<path d="M178.559 233.981H0.467432C0.343462 233.981 0.224568 233.932 0.136907 233.844C0.0492468 233.756 0 233.637 0 233.513C0 233.389 0.0492468 233.27 0.136907 233.183C0.224568 233.095 0.343462 233.046 0.467432 233.046H178.559C178.683 233.046 178.802 233.095 178.89 233.183C178.977 233.27 179.027 233.389 179.027 233.513C179.027 233.637 178.977 233.756 178.89 233.844C178.802 233.932 178.683 233.981 178.559 233.981Z" fill="#CBCBCB"/>
</g>
<defs>
<clipPath id="clip0_20_1468">
<rect width="389" height="234" fill="white"/>
</clipPath>
</defs>
</svg>
